<?xml version="1.0" encoding="UTF-8" standalone="no"?>
<svg width="15px" height="16px" viewBox="0 0 15 16" version="1.1" xmlns="http://www.w3.org/2000/svg" xmlns:xlink="http://www.w3.org/1999/xlink">
    <!-- Generator: Sketch 44 (41411) - http://www.bohemiancoding.com/sketch -->
    <title>Shape</title>
    <desc>Created with Sketch.</desc>
    <defs></defs>
    <g id="carer_portal" stroke="none" stroke-width="1" fill="none" fill-rule="evenodd">
        <g id="carer_login_cookies" transform="translate(-1395.000000, -17.000000)" fill-rule="nonzero" fill="#232129">
            <path d="M1409.78007,17.7200257 C1409.48683,17.4267831 1409.01284,17.4267831 1408.71959,17.7200257 L1402.5,23.9396203 L1396.28041,17.7200257 C1395.98716,17.4267831 1395.51317,17.4267831 1395.21993,17.7200257 C1394.92669,18.0132684 1394.92669,18.4872566 1395.21993,18.7804992 L1401.43953,25.0000937 L1395.21993,31.2196883 C1394.92669,31.5129309 1394.92669,31.9869191 1395.21993,32.2801617 C1395.36618,32.4264081 1395.55817,32.4999063 1395.75017,32.4999063 C1395.94216,32.4999063 1396.13416,32.4264081 1396.28041,32.2801617 L1402.5,26.0605672 L1408.71959,32.2801617 C1408.86584,32.4264081 1409.05784,32.4999063 1409.24983,32.4999063 C1409.44183,32.4999063 1409.63382,32.4264081 1409.78007,32.2801617 C1410.07331,31.9869191 1410.07331,31.5129309 1409.78007,31.2196883 L1403.56047,25.0000937 L1409.78007,18.7804992 C1410.07331,18.4872566 1410.07331,18.0132684 1409.78007,17.7200257 Z" id="Shape"></path>
        </g>
    </g>
</svg>