<?xml version="1.0" encoding="UTF-8" standalone="no"?>
<svg width="30px" height="20px" viewBox="0 0 30 20" version="1.1" xmlns="http://www.w3.org/2000/svg" xmlns:xlink="http://www.w3.org/1999/xlink">
    <!-- Generator: Sketch 43.2 (39069) - http://www.bohemiancoding.com/sketch -->
    <title>menu</title>
    <desc>Created with Sketch.</desc>
    <defs></defs>
    <g id="carer_portal_v1_b2" stroke="none" stroke-width="1" fill="none" fill-rule="evenodd">
        <g id="mobile_visit_details_long" transform="translate(-9.000000, -76.000000)" fill-rule="nonzero" fill="#000000">
            <g id="navigation" transform="translate(0.000000, 65.000000)">
                <g id="menu" transform="translate(9.000000, 11.000000)">
                    <g id="Capa_1">
                        <g id="Group">
                            <path d="M1.13207547,2.54716981 L28.8679245,2.54716981 C29.4928302,2.54716981 30,2.04 30,1.41509434 C30,0.790188679 29.4928302,0.283018868 28.8679245,0.283018868 L1.13207547,0.283018868 C0.507169811,0.283018868 0,0.790188679 0,1.41509434 C0,2.04 0.507169811,2.54716981 1.13207547,2.54716981 Z" id="Shape"></path>
                            <path d="M1.13207547,11.0377358 L28.8679245,11.0377358 C29.4928302,11.0377358 30,10.530566 30,9.90566038 C30,9.28075472 29.4928302,8.77358491 28.8679245,8.77358491 L1.13207547,8.77358491 C0.507169811,8.77358491 0,9.28075472 0,9.90566038 C0,10.530566 0.507169811,11.0377358 1.13207547,11.0377358 Z" id="Shape"></path>
                            <path d="M1.13207547,19.5283019 L28.8679245,19.5283019 C29.4928302,19.5283019 30,19.0211321 30,18.3962264 C30,17.7713208 29.4928302,17.2641509 28.8679245,17.2641509 L1.13207547,17.2641509 C0.507169811,17.2641509 0,17.7713208 0,18.3962264 C0,19.0211321 0.507169811,19.5283019 1.13207547,19.5283019 Z" id="Shape"></path>
                        </g>
                    </g>
                </g>
            </g>
        </g>
    </g>
</svg>